<?xml version="1.0" encoding="utf-8"?>
<!-- Generator: Adobe Illustrator 15.0.0, SVG Export Plug-In . SVG Version: 6.00 Build 0)  -->
<!DOCTYPE svg PUBLIC "-//W3C//DTD SVG 1.1//EN" "http://www.w3.org/Graphics/SVG/1.1/DTD/svg11.dtd">
<svg version="1.1" id="Layer_1" xmlns="http://www.w3.org/2000/svg" xmlns:xlink="http://www.w3.org/1999/xlink" x="0px" y="0px"
	 width="1792px" height="1792px" viewBox="0 0 1792 1792" enable-background="new 0 0 1792 1792" xml:space="preserve">
<path fill="#0071BC" d="M1152,1376v-160c0-9.333-3-17-9-23s-13.667-9-23-9h-96V672c0-9.333-3-17-9-23s-13.667-9-23-9H672
	c-9.333,0-17,3-23,9s-9,13.667-9,23v160c0,9.333,3,17,9,23s13.667,9,23,9h96v320h-96c-9.333,0-17,3-23,9s-9,13.667-9,23v160
	c0,9.333,3,17,9,23s13.667,9,23,9h448c9.333,0,17-3,23-9S1152,1385.333,1152,1376z M1024,480V320c0-9.333-3-17-9-23s-13.667-9-23-9
	H800c-9.333,0-17,3-23,9s-9,13.667-9,23v160c0,9.333,3,17,9,23s13.667,9,23,9h192c9.333,0,17-3,23-9S1024,489.333,1024,480z
	 M1664,896c0,139.333-34.333,267.833-103,385.5s-161.833,210.833-279.5,279.5s-246.167,103-385.5,103s-267.833-34.333-385.5-103
	S299.667,1399.167,231,1281.5S128,1035.333,128,896s34.333-267.833,103-385.5C299.667,392.833,392.833,299.667,510.5,231
	S756.667,128,896,128s267.833,34.333,385.5,103s210.833,161.833,279.5,279.5C1629.667,628.167,1664,756.667,1664,896z"/>
</svg>
