<?xml version="1.0" encoding="utf-8"?>
<!-- Generator: Adobe Illustrator 15.0.0, SVG Export Plug-In . SVG Version: 6.00 Build 0)  -->
<!DOCTYPE svg PUBLIC "-//W3C//DTD SVG 1.1//EN" "http://www.w3.org/Graphics/SVG/1.1/DTD/svg11.dtd">
<svg version="1.1" id="Layer_1" xmlns="http://www.w3.org/2000/svg" xmlns:xlink="http://www.w3.org/1999/xlink" x="0px" y="0px"
	 width="1792px" height="1792px" viewBox="0 0 1792 1792" enable-background="new 0 0 1792 1792" xml:space="preserve">
<path fill="#0071BC" d="M512,1248v192c0,26.667-9.333,49.333-28,68s-41.333,28-68,28H96c-26.667,0-49.333-9.333-68-28
	s-28-41.333-28-68v-192c0-26.667,9.333-49.333,28-68s41.333-28,68-28h320c26.667,0,49.333,9.333,68,28S512,1221.333,512,1248z
	 M512,736v192c0,26.667-9.333,49.333-28,68s-41.333,28-68,28H96c-26.667,0-49.333-9.333-68-28S0,954.667,0,928V736
	c0-26.667,9.333-49.333,28-68s41.333-28,68-28h320c26.667,0,49.333,9.333,68,28S512,709.333,512,736z M1152,1248v192
	c0,26.667-9.333,49.333-28,68s-41.333,28-68,28H736c-26.667,0-49.333-9.333-68-28s-28-41.333-28-68v-192
	c0-26.667,9.333-49.333,28-68s41.333-28,68-28h320c26.667,0,49.333,9.333,68,28S1152,1221.333,1152,1248z M512,224v192
	c0,26.667-9.333,49.333-28,68s-41.333,28-68,28H96c-26.667,0-49.333-9.333-68-28S0,442.667,0,416V224c0-26.667,9.333-49.333,28-68
	s41.333-28,68-28h320c26.667,0,49.333,9.333,68,28S512,197.333,512,224z M1152,736v192c0,26.667-9.333,49.333-28,68
	s-41.333,28-68,28H736c-26.667,0-49.333-9.333-68-28s-28-41.333-28-68V736c0-26.667,9.333-49.333,28-68s41.333-28,68-28h320
	c26.667,0,49.333,9.333,68,28S1152,709.333,1152,736z M1792,1248v192c0,26.667-9.333,49.333-28,68s-41.333,28-68,28h-320
	c-26.667,0-49.333-9.333-68-28s-28-41.333-28-68v-192c0-26.667,9.333-49.333,28-68s41.333-28,68-28h320c26.667,0,49.333,9.333,68,28
	S1792,1221.333,1792,1248z M1152,224v192c0,26.667-9.333,49.333-28,68s-41.333,28-68,28H736c-26.667,0-49.333-9.333-68-28
	s-28-41.333-28-68V224c0-26.667,9.333-49.333,28-68s41.333-28,68-28h320c26.667,0,49.333,9.333,68,28S1152,197.333,1152,224z
	 M1792,736v192c0,26.667-9.333,49.333-28,68s-41.333,28-68,28h-320c-26.667,0-49.333-9.333-68-28s-28-41.333-28-68V736
	c0-26.667,9.333-49.333,28-68s41.333-28,68-28h320c26.667,0,49.333,9.333,68,28S1792,709.333,1792,736z M1792,224v192
	c0,26.667-9.333,49.333-28,68s-41.333,28-68,28h-320c-26.667,0-49.333-9.333-68-28s-28-41.333-28-68V224
	c0-26.667,9.333-49.333,28-68s41.333-28,68-28h320c26.667,0,49.333,9.333,68,28S1792,197.333,1792,224z"/>
</svg>
