<?xml version="1.0" encoding="utf-8"?>
<!-- Generator: Adobe Illustrator 15.0.0, SVG Export Plug-In . SVG Version: 6.00 Build 0)  -->
<!DOCTYPE svg PUBLIC "-//W3C//DTD SVG 1.1//EN" "http://www.w3.org/Graphics/SVG/1.1/DTD/svg11.dtd">
<svg version="1.1" id="Layer_1" xmlns="http://www.w3.org/2000/svg" xmlns:xlink="http://www.w3.org/1999/xlink" x="0px" y="0px"
	 width="1792px" height="1792px" viewBox="0 0 1792 1792" enable-background="new 0 0 1792 1792" xml:space="preserve">
<path fill="#FFFFFF" stroke="#E31C3D" stroke-width="200" stroke-miterlimit="10" d="M896,1541.571
	c-15.094,0-27.866-5.226-38.316-15.675l-543.388-524.23c-5.806-4.644-13.788-12.191-23.947-22.641
	c-10.16-10.45-26.27-29.463-48.331-57.039c-22.06-27.576-41.799-55.877-59.215-84.904s-32.945-64.15-46.588-105.369
	c-13.643-41.219-20.464-81.275-20.464-120.172c0-127.72,36.864-227.573,110.594-299.561C300.073,239.993,401.958,204,532,204
	c35.993,0,72.713,6.241,110.158,18.723c37.445,12.481,72.276,29.317,104.498,50.507c32.22,21.19,59.94,41.074,83.163,59.651
	c23.222,18.577,45.281,38.316,66.182,59.215c20.899-20.899,42.96-40.638,66.182-59.215c23.224-18.577,50.943-38.461,83.163-59.651
	c32.221-21.189,67.054-38.025,104.498-50.507c37.444-12.481,74.164-18.723,110.158-18.723c130.041,0,231.927,35.993,305.655,107.981
	s110.594,171.84,110.594,299.561c0,128.299-66.472,258.922-199.416,391.867l-542.518,522.487
	C923.866,1536.347,911.094,1541.571,896,1541.571z"/>
</svg>
