<?xml version="1.0" encoding="utf-8"?>
<!-- Generator: Adobe Illustrator 15.0.0, SVG Export Plug-In . SVG Version: 6.00 Build 0)  -->
<!DOCTYPE svg PUBLIC "-//W3C//DTD SVG 1.1//EN" "http://www.w3.org/Graphics/SVG/1.1/DTD/svg11.dtd">
<svg version="1.1" id="Layer_1" xmlns="http://www.w3.org/2000/svg" xmlns:xlink="http://www.w3.org/1999/xlink" x="0px" y="0px"
	 width="1792px" height="1792px" viewBox="0 0 1792 1792" enable-background="new 0 0 1792 1792" xml:space="preserve">
<path fill="#333333" stroke="#FFFFFF" stroke-miterlimit="10" d="M1664,596c0-54-7.167-101.667-21.5-143s-32.667-74.167-55-98.5
	S1538,310.333,1506,295s-63.333-25.667-94-31s-63.333-8-98-8s-72,8.5-112,25.5s-76.833,38.333-110.5,64s-62.5,49.667-86.5,72
	c-24,22.333-44,42.833-60,61.5c-12,14.667-28.333,22-49,22s-37-7.333-49-22c-16-18.667-36-39.167-60-61.5
	c-24-22.333-52.833-46.333-86.5-72s-70.5-47-110.5-64S512.667,256,478,256s-67.333,2.667-98,8s-62,15.667-94,31
	s-59.167,35.167-81.5,59.5s-40.667,57.167-55,98.5S128,542,128,596c0,112,62.333,230.333,187,355l581,560l580-559
	C1601.333,826.667,1664,708,1664,596z M1792,596c0,147.333-76.333,297.333-229,450l-623,600c-12,12-26.667,18-44,18s-32-6-44-18
	l-624-602c-6.667-5.333-15.833-14-27.5-26s-30.167-33.833-55.5-65.5S97,888.333,77,855s-37.833-73.667-53.5-121S0,640.667,0,596
	c0-146.667,42.333-261.333,127-344s201.667-124,351-124c41.333,0,83.5,7.167,126.5,21.5s83,33.667,120,58s68.833,47.167,95.5,68.5
	s52,44,76,68c24-24,49.333-46.667,76-68s58.5-44.167,95.5-68.5s77-43.667,120-58S1272.667,128,1314,128
	c149.333,0,266.333,41.333,351,124S1792,449.333,1792,596z"/>
</svg>
