<?xml version="1.0" encoding="utf-8"?>
<!-- Generator: Adobe Illustrator 15.0.0, SVG Export Plug-In . SVG Version: 6.00 Build 0)  -->
<!DOCTYPE svg PUBLIC "-//W3C//DTD SVG 1.1//EN" "http://www.w3.org/Graphics/SVG/1.1/DTD/svg11.dtd">
<svg version="1.1" id="Layer_1" xmlns="http://www.w3.org/2000/svg" xmlns:xlink="http://www.w3.org/1999/xlink" x="0px" y="0px"
	 width="1792px" height="1792px" viewBox="0 0 1792 1792" enable-background="new 0 0 1792 1792" xml:space="preserve">
<path fill="#342E2E" d="M1201,1004l306-297l-422-62L896,263L707,645l-422,62l306,297l-73,421l378-199l377,199L1201,1004z M1728,647
	c0,14.667-8.667,30.667-26,48l-363,354l86,500c0.667,4.667,1,11.333,1,20c0,33.333-13.667,50-41,50c-12.667,0-26-4-40-12l-449-236
	l-449,236c-14.667,8-28,12-40,12c-14,0-24.5-4.833-31.5-14.5S365,1583,365,1569c0-4,0.667-10.667,2-20l86-500L89,695
	c-16.667-18-25-34-25-48c0-24.667,18.667-40,56-46l502-73L847,73c12.667-27.333,29-41,49-41s36.333,13.667,49,41l225,455l502,73
	C1709.333,607,1728,622.333,1728,647z"/>
</svg>
