<?xml version="1.0" encoding="UTF-8" standalone="no"?>
<!DOCTYPE svg PUBLIC "-//W3C//DTD SVG 1.1//EN" "http://www.w3.org/Graphics/SVG/1.1/DTD/svg11.dtd">
<svg xmlns:dc="http://purl.org/dc/elements/1.1/" xmlns:xl="http://www.w3.org/1999/xlink" version="1.1" xmlns="http://www.w3.org/2000/svg" viewBox="766 454 14 14" width="14" height="14">
  <defs/>
  <metadata> Produced by OmniGraffle 7.8.1 
    <dc:date>2018-09-14 21:33:12 +0000</dc:date>
  </metadata>
  <g id="Canvas_1" fill-opacity="1" stroke-dasharray="none" stroke="none" stroke-opacity="1" fill="none">
    <title>WF-001:  App Connect Widget</title>
    <g id="Canvas_1: My Dashboard">
      <title>My Dashboard</title>
      <g id="Graphic_185874">
        <path d="M 777.6667 461.29167 L 777.6667 456.91667 C 777.6667 456.7587 777.6089 456.62196 777.4935 456.5065 C 777.378 456.39106 777.2413 456.33333 777.0833 456.33333 L 772.7083 456.33333 C 772.4531 456.33333 772.2739 456.4518 772.1706 456.6888 C 772.0673 456.93793 772.1098 457.1506 772.2982 457.3268 L 773.6107 458.6393 L 768.7435 463.5065 C 768.628 463.62196 768.5703 463.7587 768.5703 463.91667 C 768.5703 464.07465 768.628 464.21137 768.7435 464.3268 L 769.6732 465.2565 C 769.7886 465.37196 769.92535 465.4297 770.0833 465.4297 C 770.2413 465.4297 770.378 465.37196 770.4935 465.2565 L 775.3607 460.3893 L 776.6732 461.7018 C 776.78255 461.8173 776.9193 461.875 777.0833 461.875 C 777.15625 461.875 777.2322 461.8598 777.3112 461.8294 C 777.5482 461.72613 777.6667 461.5469 777.6667 461.29167 Z M 780 456.625 L 780 465.375 C 780 466.0981 779.7433 466.71636 779.2298 467.2298 C 778.7164 467.7433 778.0981 468 777.375 468 L 768.625 468 C 767.9019 468 767.2836 467.7433 766.7702 467.2298 C 766.2567 466.71636 766 466.0981 766 465.375 L 766 456.625 C 766 455.9019 766.2567 455.28364 766.7702 454.7702 C 767.2836 454.25673 767.9019 454 768.625 454 L 777.375 454 C 778.0981 454 778.7164 454.25673 779.2298 454.7702 C 779.7433 455.28364 780 455.9019 780 456.625 Z" fill="#0071c2"/>
      </g>
    </g>
  </g>
</svg>
