<?xml version="1.0" encoding="UTF-8" standalone="no"?>
<svg
   xmlns:dc="http://purl.org/dc/elements/1.1/"
   xmlns:cc="http://creativecommons.org/ns#"
   xmlns:rdf="http://www.w3.org/1999/02/22-rdf-syntax-ns#"
   xmlns:svg="http://www.w3.org/2000/svg"
   xmlns="http://www.w3.org/2000/svg"
   xmlns:sodipodi="http://sodipodi.sourceforge.net/DTD/sodipodi-0.dtd"
   xmlns:inkscape="http://www.inkscape.org/namespaces/inkscape"
   viewBox="0 0 448 512"
   id="svg2"
   version="1.1"
   inkscape:version="0.91 r13725"
   sodipodi:docname="building-edit.svg">
  <metadata
     id="metadata10">
    <rdf:RDF>
      <cc:Work
         rdf:about="">
        <dc:format>image/svg+xml</dc:format>
        <dc:type
           rdf:resource="http://purl.org/dc/dcmitype/StillImage" />
        <dc:title></dc:title>
      </cc:Work>
    </rdf:RDF>
  </metadata>
  <defs
     id="defs8" />
  <sodipodi:namedview
     pagecolor="#ffffff"
     bordercolor="#666666"
     borderopacity="1"
     objecttolerance="10"
     gridtolerance="10"
     guidetolerance="10"
     inkscape:pageopacity="0"
     inkscape:pageshadow="2"
     inkscape:window-width="877"
     inkscape:window-height="672"
     id="namedview6"
     showgrid="false"
     inkscape:zoom="0.921875"
     inkscape:cx="257.11618"
     inkscape:cy="258.38333"
     inkscape:window-x="53"
     inkscape:window-y="0"
     inkscape:window-maximized="0"
     inkscape:current-layer="layer1" />
  <path
     d="m 364.21308,485.26877 -16.70703,0 0,-380.9201 c 0,-11.07258 -8.97584,-20.048428 -20.04842,-20.048428 l -280.677969,0 c -11.072579,0 -20.048426,8.975848 -20.048426,20.048428 l 0,380.9201 -16.707022,0 C 4.4883414,485.26877 0,489.75711 0,495.29298 L 0,512 l 374.23729,0 0,-16.70702 c 0,-5.53587 -4.48834,-10.02421 -10.02421,-10.02421 z M 106.92494,147.78692 c 0,-5.53587 4.48834,-10.02421 10.02421,-10.02421 l 33.41405,0 c 5.53587,0 10.02421,4.48834 10.02421,10.02421 l 0,33.41405 c 0,5.53587 -4.48834,10.02421 -10.02421,10.02421 l -33.41405,0 c -5.53587,0 -10.02421,-4.48834 -10.02421,-10.02421 l 0,-33.41405 z m 0,80.19371 c 0,-5.53587 4.48834,-10.02421 10.02421,-10.02421 l 33.41405,0 c 5.53587,0 10.02421,4.48834 10.02421,10.02421 l 0,33.41404 c 0,5.53587 -4.48834,10.02422 -10.02421,10.02422 l -33.41405,0 c -5.53587,0 -10.02421,-4.48835 -10.02421,-10.02422 l 0,-33.41404 z m 43.43826,123.63196 -33.41405,0 c -5.53587,0 -10.02421,-4.48834 -10.02421,-10.02421 l 0,-33.41405 c 0,-5.53587 4.48834,-10.02421 10.02421,-10.02421 l 33.41405,0 c 5.53587,0 10.02421,4.48834 10.02421,10.02421 l 0,33.41405 c 0,5.53587 -4.48834,10.02421 -10.02421,10.02421 z m 63.48668,133.65618 -53.46247,0 0,-70.1695 c 0,-5.53587 4.48834,-10.02421 10.02421,-10.02421 l 33.41405,0 c 5.53587,0 10.02421,4.48834 10.02421,10.02421 l 0,70.1695 z m 53.46247,-143.68039 c 0,5.53587 -4.48834,10.02421 -10.02421,10.02421 l -33.41405,0 c -5.53587,0 -10.02421,-4.48834 -10.02421,-10.02421 l 0,-33.41405 c 0,-5.53587 4.48834,-10.02421 10.02421,-10.02421 l 33.41405,0 c 5.53587,0 10.02421,4.48834 10.02421,10.02421 l 0,33.41405 z m 0,-80.19371 c 0,5.53587 -4.48834,10.02422 -10.02421,10.02422 l -33.41405,0 c -5.53587,0 -10.02421,-4.48835 -10.02421,-10.02422 l 0,-33.41404 c 0,-5.53587 4.48834,-10.02421 10.02421,-10.02421 l 33.41405,0 c 5.53587,0 10.02421,4.48834 10.02421,10.02421 l 0,33.41404 z m 0,-80.1937 c 0,5.53587 -4.48834,10.02421 -10.02421,10.02421 l -33.41405,0 c -5.53587,0 -10.02421,-4.48834 -10.02421,-10.02421 l 0,-33.41405 c 0,-5.53587 4.48834,-10.02421 10.02421,-10.02421 l 33.41405,0 c 5.53587,0 10.02421,4.48834 10.02421,10.02421 l 0,33.41405 z"
     id="path4"
     style="fill:#696969"
     inkscape:connector-curvature="0" />
  <g
     inkscape:groupmode="layer"
     id="layer1"
     inkscape:label="pencil">
    <path
       id="path3399"
       d="m 434.41332,133.21627 -31.96993,31.96993 c -3.2594,3.25941 -8.52993,3.25941 -11.78934,0 L 313.67656,88.208714 c -3.2594,-3.259406 -3.2594,-8.529936 0,-11.789342 L 345.64649,44.44944 c 12.96828,-12.968279 34.05041,-12.968279 47.08803,0 l 41.6788,41.678806 c 13.03763,12.968273 13.03763,34.050394 0,47.088024 z M 286.21433,103.8816 104.10364,285.9923 89.401633,370.25143 c -2.011124,11.37325 7.905801,21.22082 19.279047,19.27905 l 84.25913,-14.77135 182.1107,-182.1107 c 3.25941,-3.2594 3.25941,-8.52993 0,-11.78934 L 298.07302,103.8816 c -3.32876,-3.2594 -8.59929,-3.2594 -11.85869,0 z M 175.18645,270.38875 c -3.8142,-3.81419 -3.8142,-9.91691 0,-13.73111 L 281.98404,149.86005 c 3.81419,-3.8142 9.91691,-3.8142 13.73111,0 3.81421,3.8142 3.81421,9.91692 0,13.73112 L 188.91756,270.38875 c -3.81419,3.81421 -9.91691,3.81421 -13.73111,0 z m -25.03501,58.32259 33.28755,0 0,25.17371 -44.73016,7.83645 -21.56756,-21.56756 7.83645,-44.73016 25.17372,0 0,33.28756 z"
       inkscape:connector-curvature="0"
       style="fill:#daa520" />
  </g>
</svg>
