<?xml version="1.0" encoding="utf-8"?>
<!-- Generator: Adobe Illustrator 15.0.0, SVG Export Plug-In . SVG Version: 6.00 Build 0)  -->
<!DOCTYPE svg PUBLIC "-//W3C//DTD SVG 1.1//EN" "http://www.w3.org/Graphics/SVG/1.1/DTD/svg11.dtd">
<svg version="1.1" id="Layer_1" xmlns="http://www.w3.org/2000/svg" xmlns:xlink="http://www.w3.org/1999/xlink" x="0px" y="0px"
	 width="26px" height="19.77px" viewBox="2.792 2.123 26 19.77" enable-background="new 2.792 2.123 26 19.77" xml:space="preserve"
	>
<path fill="#FFFFFF" d="M27.315,2.123H4.272c-0.816,0-1.48,0.781-1.48,1.739v16.289c0,0.962,0.664,1.742,1.48,1.742h23.043
	c0.813,0,1.477-0.781,1.477-1.742V3.862C28.792,2.904,28.129,2.123,27.315,2.123z"/>
<path fill="#D1B283" d="M7.39,15.596H6.397c-1.065,0-1.932-0.867-1.932-1.932v-0.531h2.923L7.39,15.596L7.39,15.596z"/>
<polygon fill="#D1B283" points="7.39,12.012 4.466,12.012 4.466,9.965 7.389,9.965 7.389,12.012 "/>
<path fill="#D1B283" d="M7.39,8.845H4.466V8.313c0-1.064,0.865-1.932,1.932-1.932h0.991L7.39,8.845L7.39,8.845z"/>
<rect x="8.51" y="6.383" fill="#D1B283" width="2.506" height="9.213"/>
<path fill="#D1B283" d="M15.061,13.664c0,1.064-0.865,1.932-1.931,1.932h-0.992v-2.463h2.922L15.061,13.664L15.061,13.664z"/>
<rect x="12.137" y="9.965" fill="#D1B283" width="2.922" height="2.047"/>
<path fill="#D1B283" d="M15.061,8.845h-2.923V6.383h0.992c1.064,0,1.931,0.865,1.931,1.931V8.845L15.061,8.845z"/>
</svg>
