<?xml version="1.0" encoding="utf-8"?>
<!-- Generator: Adobe Illustrator 15.0.0, SVG Export Plug-In . SVG Version: 6.00 Build 0)  -->
<!DOCTYPE svg PUBLIC "-//W3C//DTD SVG 1.1//EN" "http://www.w3.org/Graphics/SVG/1.1/DTD/svg11.dtd">
<svg version="1.1" id="Layer_1" xmlns="http://www.w3.org/2000/svg" xmlns:xlink="http://www.w3.org/1999/xlink" x="0px" y="0px"
	 width="1792px" height="1792px" viewBox="0 0 1792 1792" enable-background="new 0 0 1792 1792" xml:space="preserve">
<path fill="#1E5629" d="M1639,1056c0,3.333-0.333,5.667-1,7c-42.667,178.667-132,323.5-268,434.5S1074.667,1664,892,1664
	c-97.333,0-191.5-18.333-282.5-55s-172.167-89-243.5-157l-129,129c-12.667,12.667-27.667,19-45,19s-32.333-6.333-45-19
	s-19-27.667-19-45v-448c0-17.333,6.333-32.333,19-45s27.667-19,45-19h448c17.333,0,32.333,6.333,45,19s19,27.667,19,45
	s-6.333,32.333-19,45l-137,137c47.333,44,101,78,161,102s122.333,36,187,36c89.333,0,172.667-21.667,250-65s139.333-103,186-179
	c7.333-11.333,25-50.333,53-117c5.333-15.333,15.333-23,30-23h192c8.667,0,16.167,3.167,22.5,9.5S1639,1047.333,1639,1056z
	 M1664,256v448c0,17.333-6.333,32.333-19,45s-27.667,19-45,19h-448c-17.333,0-32.333-6.333-45-19s-19-27.667-19-45
	s6.333-32.333,19-45l138-138c-98.667-91.333-215-137-349-137c-89.333,0-172.667,21.667-250,65S506.667,552,460,628
	c-7.333,11.333-25,50.333-53,117c-5.333,15.333-15.333,23-30,23H178c-8.667,0-16.167-3.167-22.5-9.5S146,744.667,146,736v-7
	c43.333-178.667,133.333-323.5,270-434.5C552.667,183.5,712.667,128,896,128c97.333,0,192,18.5,284,55.5s173.667,89.167,245,156.5
	l130-129c12.667-12.667,27.667-19,45-19s32.333,6.333,45,19S1664,238.667,1664,256z"/>
</svg>
