<?xml version="1.0" encoding="utf-8"?>
<!-- Generator: Adobe Illustrator 15.0.0, SVG Export Plug-In . SVG Version: 6.00 Build 0)  -->
<!DOCTYPE svg PUBLIC "-//W3C//DTD SVG 1.1//EN" "http://www.w3.org/Graphics/SVG/1.1/DTD/svg11.dtd">
<svg version="1.1" id="Layer_1" xmlns="http://www.w3.org/2000/svg" xmlns:xlink="http://www.w3.org/1999/xlink" x="0px" y="0px"
	 width="48px" height="48px" viewBox="0 0 48 48" enable-background="new 0 0 48 48" xml:space="preserve">
<path d="M21.227,10.015L1.166,30.098C0.389,30.842,0,31.759,0,32.871c0,1.111,0.389,2.028,1.166,2.773l2.309,2.341
	c0.756,0.756,1.684,1.144,2.773,1.144c1.068,0,2.008-0.377,2.806-1.144L24,23.018l14.968,14.968
	c0.755,0.756,1.683,1.144,2.773,1.144c1.068,0,2.007-0.377,2.806-1.144l2.309-2.341C47.611,34.889,48,33.961,48,32.871
	s-0.378-2.019-1.145-2.773l-20.05-20.083C26.008,9.259,25.068,8.871,24,8.871C22.91,8.871,21.982,9.248,21.227,10.015z"/>
</svg>
