<?xml version="1.0" encoding="utf-8"?>
<!-- Generator: Adobe Illustrator 15.0.0, SVG Export Plug-In  -->
<!DOCTYPE svg PUBLIC "-//W3C//DTD SVG 1.1//EN" "http://www.w3.org/Graphics/SVG/1.1/DTD/svg11.dtd" [
	<!ENTITY ns_flows "http://ns.adobe.com/Flows/1.0/">
]>
<svg version="1.1"
	 xmlns="http://www.w3.org/2000/svg" xmlns:xlink="http://www.w3.org/1999/xlink" xmlns:a="http://ns.adobe.com/AdobeSVGViewerExtensions/3.0/"
	 x="0px" y="0px" width="318px" height="71px" viewBox="0 0 318 71" overflow="visible" enable-background="new 0 0 318 71"
	 xml:space="preserve">
<defs>
</defs>
<path fill="#231F20" d="M101.569,48.287c-0.792-0.31-1.426-0.466-1.901-0.466c-1.066,0-1.816,0.322-2.246,0.96
	c-0.431,0.639-0.648,1.766-0.648,3.369v0.934h2.328v1.205h-2.328v10.822h-1.368V54.289h-2.114v-1.205h2.114v-0.879
	c0-1.99,0.336-3.441,1.013-4.355c0.676-0.914,1.754-1.37,3.233-1.37c0.528,0,1.168,0.128,1.918,0.384V48.287"/>
<path fill="#231F20" d="M111.434,59.043c0-1.34-0.434-2.475-1.3-3.41c-0.868-0.934-1.931-1.396-3.192-1.396
	c-1.168,0-2.18,0.463-3.028,1.396c-0.85,0.936-1.271,2.039-1.271,3.328c0,1.377,0.418,2.541,1.256,3.492
	c0.84,0.951,1.876,1.426,3.098,1.426c1.225,0,2.271-0.475,3.139-1.426C111,61.502,111.434,60.363,111.434,59.043L111.434,59.043z
	 M112.859,59.125c0,1.697-0.574,3.133-1.726,4.316c-1.154,1.188-2.561,1.777-4.221,1.777c-1.569,0-2.913-0.609-4.025-1.832
	c-1.118-1.219-1.672-2.703-1.672-4.453c0-1.66,0.569-3.082,1.71-4.266c1.14-1.182,2.508-1.777,4.098-1.777
	c1.624,0,3.004,0.607,4.136,1.816C112.294,55.922,112.859,57.391,112.859,59.125"/>
<path fill="#231F20" d="M124.613,54.426l-0.956,1.258c-0.642-0.969-1.317-1.449-2.027-1.449c-0.86,0-1.656,0.531-2.385,1.598
	c-0.733,1.066-1.096,2.225-1.096,3.484v5.793h-1.372V53.082h1.372v2.984c0.78-1.184,1.452-2.014,2.019-2.477
	c0.563-0.469,1.164-0.701,1.802-0.701C122.913,52.889,123.798,53.402,124.613,54.426"/>
<path fill="#231F20" d="M141.873,64.762c-0.859,0.305-1.617,0.457-2.273,0.457c-1.828,0-2.742-1.162-2.742-3.488v-7.305h-2.874
	v-1.344h2.874v-2.221l1.372-1.286v3.507h3.316v1.344h-3.316v7.299c0,1.436,0.558,2.154,1.672,2.154c0.566,0,1.222-0.176,1.972-0.523
	V64.762"/>
<path fill="#231F20" d="M154.289,65.109h-1.371v-6.559c0-2.879-1.022-4.314-3.07-4.314c-1.312,0-2.444,0.752-3.398,2.264v8.609
	h-1.368V46.836h1.368v8.191c0.954-1.426,2.13-2.137,3.536-2.137c2.866,0,4.304,1.883,4.304,5.645V65.109"/>
<path fill="#231F20" d="M166.971,57.438c-0.109-0.959-0.475-1.727-1.098-2.309c-0.619-0.578-1.406-0.867-2.354-0.867
	c-0.896,0-1.688,0.301-2.385,0.91c-0.695,0.605-1.123,1.359-1.287,2.266H166.971L166.971,57.438z M168.369,58.043
	c0,0.219-0.012,0.41-0.025,0.574h-8.717c0,1.645,0.377,2.934,1.131,3.863c0.75,0.93,1.783,1.398,3.104,1.398
	c1.355,0,2.75-0.496,4.18-1.479v1.381c-1.389,0.961-2.852,1.438-4.385,1.438c-1.57,0-2.873-0.594-3.902-1.789
	c-1.036-1.195-1.553-2.701-1.553-4.523c0-1.734,0.509-3.164,1.523-4.293c1.014-1.127,2.305-1.695,3.875-1.695
	c1.408,0,2.557,0.48,3.438,1.438C167.926,55.318,168.369,56.543,168.369,58.043"/>
<path fill="#231F20" d="M188.07,57.438c-0.111-0.959-0.477-1.727-1.1-2.309c-0.619-0.578-1.404-0.867-2.355-0.867
	c-0.895,0-1.686,0.301-2.381,0.91c-0.697,0.605-1.125,1.359-1.289,2.266H188.07L188.07,57.438z M189.467,58.043
	c0,0.219-0.012,0.41-0.025,0.574h-8.717c0,1.645,0.377,2.934,1.129,3.863c0.75,0.93,1.785,1.398,3.105,1.398
	c1.357,0,2.75-0.496,4.18-1.479v1.381c-1.389,0.961-2.852,1.438-4.385,1.438c-1.57,0-2.873-0.594-3.902-1.789
	c-1.035-1.195-1.553-2.701-1.553-4.523c0-1.734,0.508-3.164,1.525-4.293c1.012-1.127,2.303-1.695,3.873-1.695
	c1.406,0,2.557,0.48,3.438,1.438C189.023,55.318,189.467,56.543,189.467,58.043"/>
<path fill="#231F20" d="M202.371,65.109h-1.367v-6.887c0-2.658-1.016-3.986-3.043-3.986c-1.332,0-2.438,0.732-3.318,2.209v8.664
	h-1.365V53.082h1.365v1.945c0.582-0.785,1.15-1.34,1.697-1.656c0.545-0.32,1.199-0.48,1.963-0.48c1.275,0,2.271,0.441,2.988,1.328
	c0.721,0.887,1.08,2.113,1.08,3.686V65.109"/>
<polyline fill="#231F20" points="216.074,53.082 210.922,65.109 210.102,65.109 205.086,53.082 206.418,53.074 210.535,62.877 
	214.703,53.082 216.074,53.082 "/>
<path fill="#231F20" d="M220.539,65.109h-1.371V53.082h1.371V65.109z M220.539,49.85h-1.371v-2.164h1.371V49.85z"/>
<path fill="#231F20" d="M233.004,54.426l-0.959,1.258c-0.639-0.969-1.314-1.449-2.025-1.449c-0.859,0-1.656,0.531-2.385,1.598
	c-0.732,1.066-1.096,2.225-1.096,3.484v5.793h-1.371V53.082h1.371v2.984c0.781-1.184,1.453-2.014,2.018-2.477
	c0.564-0.469,1.164-0.701,1.803-0.701C231.303,52.889,232.188,53.402,233.004,54.426"/>
<path fill="#231F20" d="M245.143,59.043c0-1.34-0.434-2.475-1.299-3.41c-0.873-0.934-1.934-1.396-3.195-1.396
	c-1.168,0-2.178,0.463-3.027,1.396c-0.848,0.936-1.273,2.039-1.273,3.328c0,1.377,0.422,2.541,1.262,3.492s1.871,1.426,3.094,1.426
	c1.227,0,2.268-0.475,3.141-1.426C244.709,61.502,245.143,60.363,245.143,59.043L245.143,59.043z M246.566,59.125
	c0,1.697-0.574,3.133-1.723,4.316c-1.152,1.188-2.559,1.777-4.223,1.777c-1.572,0-2.914-0.609-4.027-1.832
	c-1.113-1.219-1.672-2.703-1.672-4.453c0-1.66,0.57-3.082,1.713-4.266c1.143-1.182,2.508-1.777,4.096-1.777
	c1.629,0,3.008,0.607,4.141,1.816C246,55.922,246.566,57.391,246.566,59.125"/>
<path fill="#231F20" d="M259.582,65.109h-1.369v-6.887c0-2.658-1.014-3.986-3.041-3.986c-1.332,0-2.438,0.732-3.316,2.209v8.664
	h-1.367V53.082h1.367v1.945c0.582-0.785,1.148-1.34,1.693-1.656c0.549-0.32,1.201-0.48,1.967-0.48c1.273,0,2.27,0.441,2.988,1.328
	c0.717,0.887,1.078,2.113,1.078,3.686V65.109"/>
<path fill="#231F20" d="M280.242,65.109h-1.371v-6.75c0-2.75-1.031-4.123-3.094-4.123c-1.172,0-2.203,0.643-3.098,1.936
	c0.148,0.676,0.219,1.414,0.219,2.215v6.723h-1.367v-6.75c0-2.75-0.99-4.123-2.961-4.123c-1.133,0-2.129,0.541-2.988,1.635v9.238
	h-1.369V53.082h1.369v1.4c1.117-1.061,2.209-1.592,3.289-1.592c1.406,0,2.539,0.723,3.398,2.164c0.73-0.818,1.369-1.387,1.918-1.699
	c0.547-0.309,1.188-0.465,1.918-0.465c1.332,0,2.354,0.469,3.07,1.41c0.709,0.941,1.066,2.289,1.066,4.043V65.109"/>
<path fill="#231F20" d="M292.957,57.438c-0.109-0.959-0.477-1.727-1.098-2.309c-0.621-0.578-1.406-0.867-2.355-0.867
	c-0.895,0-1.688,0.301-2.383,0.91c-0.695,0.605-1.125,1.359-1.289,2.266H292.957L292.957,57.438z M294.355,58.043
	c0,0.219-0.012,0.41-0.027,0.574h-8.715c0,1.645,0.375,2.934,1.129,3.863c0.75,0.93,1.785,1.398,3.105,1.398
	c1.355,0,2.75-0.496,4.18-1.479v1.381c-1.393,0.961-2.852,1.438-4.389,1.438c-1.568,0-2.869-0.594-3.9-1.789
	c-1.035-1.195-1.551-2.701-1.551-4.523c0-1.734,0.508-3.164,1.521-4.293c1.012-1.127,2.307-1.695,3.877-1.695
	c1.406,0,2.553,0.48,3.438,1.438C293.91,55.318,294.355,56.543,294.355,58.043"/>
<path fill="#231F20" d="M307.258,65.109h-1.369v-6.887c0-2.658-1.014-3.986-3.041-3.986c-1.332,0-2.438,0.732-3.316,2.209v8.664
	h-1.367V53.082h1.367v1.945c0.582-0.785,1.148-1.34,1.693-1.656c0.549-0.32,1.201-0.48,1.967-0.48c1.271,0,2.268,0.441,2.988,1.328
	c0.719,0.887,1.078,2.113,1.078,3.686V65.109"/>
<path fill="#231F20" d="M318.246,64.762c-0.861,0.305-1.619,0.457-2.275,0.457c-1.828,0-2.74-1.162-2.74-3.488v-7.305h-2.875v-1.344
	h2.875v-2.221l1.371-1.286v3.507h3.316v1.344h-3.316v7.299c0,1.436,0.559,2.154,1.672,2.154c0.566,0,1.223-0.176,1.973-0.523V64.762
	"/>
<polyline fill="#231F20" points="107.785,34.773 93.802,34.773 93.802,8.491 107.474,8.491 107.474,10.424 95.926,10.424 
	95.926,20.512 107.313,20.512 107.313,22.441 95.926,22.441 95.926,32.844 107.785,32.844 107.785,34.773 "/>
<rect x="111.172" y="20.727" fill="#231F20" width="7.684" height="1.969"/>
<polyline fill="#231F20" points="137.926,34.773 123.938,34.773 123.938,8.491 137.609,8.491 137.609,10.424 126.065,10.424 
	126.065,20.512 137.453,20.512 137.453,22.441 126.065,22.441 126.065,32.844 137.926,32.844 137.926,34.773 "/>
<polyline fill="#231F20" points="167.039,34.773 165.387,34.773 146.59,12.552 146.59,34.773 144.466,34.773 144.466,8.491 
	145.981,8.478 164.916,31.104 164.916,8.491 167.039,8.491 167.039,34.773 "/>
<polyline fill="#231F20" points="191.074,10.424 181.811,10.424 181.811,34.773 179.688,34.773 179.688,10.424 170.463,10.424 
	170.463,8.491 191.074,8.491 191.074,10.424 "/>
<polyline fill="#231F20" points="208.488,34.773 194.5,34.773 194.5,8.491 208.172,8.491 208.172,10.424 196.627,10.424 
	196.627,20.512 208.016,20.512 208.016,22.441 196.627,22.441 196.627,32.844 208.488,32.844 208.488,34.773 "/>
<path fill="#231F20" d="M225.508,15.172c0-3.164-2.062-4.748-6.188-4.748h-4.1v9.93h3.393c2.207,0,3.906-0.448,5.1-1.346
	C224.91,18.113,225.508,16.832,225.508,15.172L225.508,15.172z M232.246,34.773h-2.604l-5.004-7.998
	c-1.262-2.042-2.232-3.3-2.914-3.775c-0.684-0.477-1.893-0.717-3.623-0.717h-2.881v12.49h-2.123V8.491h6.615
	c2.604,0,4.59,0.586,5.971,1.754c1.377,1.169,2.07,2.845,2.07,5.024c0,3.124-1.59,5.226-4.77,6.302
	c0.684,0.37,1.539,1.301,2.564,2.798c0.314,0.475,0.982,1.513,2,3.118c0.893,1.418,2.271,3.548,4.135,6.387
	C231.791,34.029,231.98,34.33,232.246,34.773"/>
<path fill="#231F20" d="M248.438,15.605c0-1.82-0.527-3.136-1.574-3.956c-1.053-0.817-2.736-1.226-5.043-1.226h-4.219v10.128h3.783
	c2.443,0,4.229-0.396,5.357-1.188S248.438,17.319,248.438,15.605L248.438,15.605z M250.684,15.605c0,2.227-0.75,3.93-2.246,5.108
	c-1.496,1.178-3.652,1.766-6.463,1.766h-4.373v12.294h-2.127V8.491h6.303c2.861,0,4.875,0.408,6.029,1.221
	C249.721,11.073,250.684,13.04,250.684,15.605"/>
<path fill="#231F20" d="M267.625,15.172c0-3.164-2.062-4.748-6.188-4.748h-4.098v9.93h3.391c2.207,0,3.904-0.448,5.102-1.346
	C267.027,18.113,267.625,16.832,267.625,15.172L267.625,15.172z M274.363,34.773h-2.602l-5.004-7.998
	c-1.262-2.042-2.234-3.3-2.914-3.775c-0.684-0.477-1.895-0.717-3.627-0.717h-2.877v12.49h-2.127V8.491h6.619
	c2.602,0,4.59,0.586,5.967,1.754c1.381,1.169,2.072,2.845,2.072,5.024c0,3.124-1.59,5.226-4.77,6.302
	c0.684,0.37,1.537,1.301,2.566,2.798c0.312,0.475,0.98,1.513,2,3.118c0.889,1.418,2.27,3.548,4.131,6.387
	C273.91,34.029,274.098,34.33,274.363,34.773"/>
<rect x="277.594" y="8.491" fill="#231F20" width="2.123" height="26.282"/>
<path fill="#231F20" d="M298.631,27.956c0,2.048-0.682,3.741-2.049,5.082c-1.365,1.34-3.086,2.01-5.16,2.01
	c-2.287,0-4.398-0.748-6.344-2.244v-2.758c1.311,1.102,2.41,1.863,3.289,2.286c0.883,0.418,1.846,0.628,2.898,0.628
	c1.523,0,2.758-0.44,3.701-1.32c0.947-0.88,1.418-2.016,1.418-3.406c0-1.368-0.344-2.404-1.021-3.114
	c-0.684-0.71-2.203-1.621-4.551-2.737c-2.354-1.118-3.953-2.181-4.809-3.192c-0.852-1.012-1.283-2.357-1.283-4.038
	c0-2.023,0.664-3.684,1.992-4.985c1.326-1.301,3.029-1.948,5.104-1.948c1.918,0,3.848,0.616,5.793,1.852v2.561
	c-1.84-1.576-3.732-2.366-5.676-2.366c-1.393,0-2.566,0.462-3.527,1.38c-0.957,0.922-1.439,2.036-1.439,3.352
	c0,1.179,0.35,2.16,1.049,2.933c0.693,0.775,1.973,1.596,3.84,2.464c2.68,1.26,4.477,2.404,5.398,3.428
	C298.172,24.842,298.631,26.222,298.631,27.956"/>
<polyline fill="#231F20" points="317.307,34.773 303.32,34.773 303.32,8.491 316.992,8.491 316.992,10.424 305.449,10.424 
	305.449,20.512 316.836,20.512 316.836,22.441 305.449,22.441 305.449,32.844 317.307,32.844 317.307,34.773 "/>
<path fill="#1C9B97" d="M39.376,35.52c0-12.336,6.3-23.19,15.854-29.544C49.588,2.208,42.812,0,35.518,0S21.445,2.208,15.806,5.976
	c9.552,6.354,15.854,17.208,15.854,29.544c0,12.332-6.302,23.184-15.854,29.539c5.64,3.775,12.418,5.977,19.712,5.977
	s14.07-2.201,19.712-5.977C45.676,58.703,39.376,47.852,39.376,35.52"/>
<path fill="#1C9B97" d="M31.659,35.52c0-12.336-6.3-23.19-15.854-29.544C6.277,12.346,0,23.195,0,35.52
	c0,12.32,6.277,23.168,15.806,29.539C25.359,58.703,31.659,47.852,31.659,35.52"/>
<path fill="#AAD2A0" d="M31.659,35.52c0-12.336-6.3-23.19-15.854-29.544C6.277,12.346,0,23.195,0,35.52
	c0,12.32,6.277,23.168,15.806,29.539C25.359,58.703,31.659,47.852,31.659,35.52"/>
<path fill="#1C9B97" d="M71.035,35.52c0-12.324-6.277-23.174-15.804-29.544c-9.554,6.354-15.854,17.208-15.854,29.544
	c0,12.332,6.3,23.184,15.854,29.539C64.758,58.688,71.035,47.84,71.035,35.52"/>
<path fill="#83B9DC" d="M71.035,35.52c0-12.324-6.277-23.174-15.804-29.544c-9.554,6.354-15.854,17.208-15.854,29.544
	c0,12.332,6.3,23.184,15.854,29.539C64.758,58.688,71.035,47.84,71.035,35.52"/>
</svg>
