<?xml version="1.0" encoding="utf-8"?>
<!-- Generator: Adobe Illustrator 15.0.0, SVG Export Plug-In  -->
<!DOCTYPE svg PUBLIC "-//W3C//DTD SVG 1.1//EN" "http://www.w3.org/Graphics/SVG/1.1/DTD/svg11.dtd" [
	<!ENTITY ns_flows "http://ns.adobe.com/Flows/1.0/">
]>
<svg version="1.1"
	 xmlns="http://www.w3.org/2000/svg" xmlns:xlink="http://www.w3.org/1999/xlink" xmlns:a="http://ns.adobe.com/AdobeSVGViewerExtensions/3.0/"
	 x="0px" y="0px" width="239px" height="53px" viewBox="0 0 239 53" overflow="visible" enable-background="new 0 0 239 53"
	 xml:space="preserve">
<defs>
</defs>
<path fill="#231F20" d="M76.177,36.215c-0.594-0.231-1.069-0.349-1.426-0.349c-0.8,0-1.362,0.241-1.685,0.72
	c-0.323,0.479-0.486,1.324-0.486,2.527v0.699h1.746v0.904H72.58v8.117h-1.026v-8.117h-1.585v-0.904h1.585v-0.658
	c0-1.493,0.252-2.582,0.76-3.268c0.507-0.686,1.315-1.027,2.425-1.027c0.396,0,0.876,0.096,1.438,0.288V36.215"/>
<path fill="#231F20" d="M83.575,44.282c0-1.005-0.325-1.856-0.975-2.558c-0.651-0.7-1.448-1.047-2.395-1.047
	c-0.876,0-1.635,0.347-2.271,1.047c-0.637,0.701-0.953,1.529-0.953,2.496c0,1.033,0.313,1.906,0.941,2.619
	c0.63,0.713,1.407,1.069,2.323,1.069c0.919,0,1.703-0.356,2.354-1.069C83.25,46.127,83.575,45.272,83.575,44.282L83.575,44.282z
	 M84.645,44.344c0,1.273-0.431,2.35-1.294,3.237c-0.866,0.891-1.921,1.333-3.166,1.333c-1.177,0-2.185-0.457-3.019-1.374
	c-0.839-0.914-1.254-2.027-1.254-3.34c0-1.245,0.427-2.312,1.282-3.199c0.854-0.886,1.881-1.333,3.073-1.333
	c1.218,0,2.253,0.455,3.102,1.362C84.221,41.941,84.645,43.043,84.645,44.344"/>
<path fill="#231F20" d="M93.46,40.819l-0.717,0.943c-0.481-0.727-0.988-1.087-1.521-1.087c-0.646,0-1.242,0.398-1.789,1.198
	c-0.55,0.8-0.821,1.669-0.821,2.613v4.345h-1.029v-9.021h1.029v2.238c0.585-0.888,1.089-1.511,1.514-1.857
	c0.423-0.352,0.873-0.526,1.352-0.526C92.185,39.666,92.849,40.052,93.46,40.819"/>
<path fill="#231F20" d="M106.404,48.571c-0.645,0.229-1.213,0.343-1.705,0.343c-1.371,0-2.057-0.871-2.057-2.616v-5.479h-2.155
	v-1.008h2.155v-1.665l1.029-0.965v2.63h2.487v1.008h-2.487v5.474c0,1.077,0.418,1.616,1.254,1.616c0.425,0,0.916-0.132,1.479-0.393
	V48.571"/>
<path fill="#231F20" d="M115.717,48.832h-1.028v-4.919c0-2.159-0.767-3.235-2.303-3.235c-0.984,0-1.833,0.563-2.549,1.697v6.457
	h-1.026V35.127h1.026v6.144c0.716-1.069,1.598-1.603,2.652-1.603c2.149,0,3.228,1.412,3.228,4.233V48.832"/>
<path fill="#231F20" d="M125.229,43.078c-0.082-0.719-0.356-1.295-0.824-1.731c-0.464-0.434-1.055-0.65-1.765-0.65
	c-0.673,0-1.266,0.226-1.788,0.683c-0.521,0.454-0.843,1.02-0.966,1.699H125.229L125.229,43.078z M126.277,43.532
	c0,0.164-0.01,0.308-0.02,0.431h-6.537c0,1.233,0.282,2.2,0.848,2.897c0.562,0.697,1.338,1.049,2.328,1.049
	c1.016,0,2.062-0.372,3.135-1.108v1.035c-1.042,0.721-2.139,1.078-3.289,1.078c-1.178,0-2.154-0.445-2.927-1.342
	c-0.777-0.896-1.165-2.025-1.165-3.393c0-1.301,0.382-2.373,1.143-3.22c0.761-0.845,1.729-1.271,2.906-1.271
	c1.057,0,1.918,0.36,2.578,1.078C125.944,41.488,126.277,42.407,126.277,43.532"/>
<path fill="#231F20" d="M141.053,43.078c-0.084-0.719-0.357-1.295-0.824-1.731c-0.465-0.434-1.054-0.65-1.768-0.65
	c-0.67,0-1.264,0.226-1.785,0.683c-0.523,0.454-0.844,1.02-0.967,1.699H141.053L141.053,43.078z M142.1,43.532
	c0,0.164-0.008,0.308-0.019,0.431h-6.538c0,1.233,0.283,2.2,0.848,2.897c0.562,0.697,1.338,1.049,2.328,1.049
	c1.019,0,2.062-0.372,3.135-1.108v1.035c-1.041,0.721-2.139,1.078-3.288,1.078c-1.178,0-2.155-0.445-2.927-1.342
	c-0.776-0.896-1.164-2.025-1.164-3.393c0-1.301,0.381-2.373,1.144-3.22c0.759-0.845,1.728-1.271,2.905-1.271
	c1.055,0,1.917,0.36,2.578,1.078C141.768,41.488,142.1,42.407,142.1,43.532"/>
<path fill="#231F20" d="M151.778,48.832h-1.025v-5.165c0-1.993-0.762-2.989-2.282-2.989c-0.999,0-1.828,0.549-2.488,1.656v6.498
	h-1.024v-9.021h1.024v1.459c0.436-0.589,0.862-1.005,1.272-1.242c0.409-0.24,0.899-0.36,1.472-0.36c0.957,0,1.704,0.331,2.242,0.996
	c0.54,0.665,0.81,1.585,0.81,2.764V48.832"/>
<polyline fill="#231F20" points="162.056,39.812 158.191,48.832 157.576,48.832 153.814,39.812 154.813,39.806 157.901,47.158 
	161.027,39.812 162.056,39.812 "/>
<path fill="#231F20" d="M165.404,48.832h-1.028v-9.021h1.028V48.832z M165.404,37.387h-1.028v-1.623h1.028V37.387z"/>
<path fill="#231F20" d="M174.753,40.819l-0.72,0.943c-0.479-0.727-0.985-1.087-1.519-1.087c-0.645,0-1.242,0.398-1.788,1.198
	c-0.55,0.8-0.822,1.669-0.822,2.613v4.345h-1.028v-9.021h1.028v2.238c0.586-0.888,1.09-1.511,1.514-1.857
	c0.423-0.352,0.873-0.526,1.352-0.526C173.477,39.666,174.141,40.052,174.753,40.819"/>
<path fill="#231F20" d="M183.857,44.282c0-1.005-0.326-1.856-0.975-2.558c-0.654-0.7-1.45-1.047-2.396-1.047
	c-0.876,0-1.633,0.347-2.271,1.047c-0.636,0.701-0.955,1.529-0.955,2.496c0,1.033,0.316,1.906,0.946,2.619s1.403,1.069,2.32,1.069
	c0.92,0,1.701-0.356,2.355-1.069C183.531,46.127,183.857,45.272,183.857,44.282L183.857,44.282z M184.925,44.344
	c0,1.273-0.431,2.35-1.292,3.237c-0.864,0.891-1.919,1.333-3.167,1.333c-1.179,0-2.186-0.457-3.021-1.374
	c-0.835-0.914-1.254-2.027-1.254-3.34c0-1.245,0.428-2.312,1.285-3.199c0.856-0.886,1.881-1.333,3.071-1.333
	c1.222,0,2.256,0.455,3.105,1.362C184.5,41.941,184.925,43.043,184.925,44.344"/>
<path fill="#231F20" d="M194.687,48.832h-1.026v-5.165c0-1.993-0.761-2.989-2.281-2.989c-0.999,0-1.828,0.549-2.487,1.656v6.498
	h-1.025v-9.021h1.025v1.459c0.437-0.589,0.861-1.005,1.271-1.242c0.411-0.24,0.9-0.36,1.475-0.36c0.955,0,1.702,0.331,2.241,0.996
	c0.538,0.665,0.809,1.585,0.809,2.764V48.832"/>
<path fill="#231F20" d="M210.182,48.832h-1.028V43.77c0-2.062-0.773-3.092-2.32-3.092c-0.879,0-1.652,0.481-2.323,1.451
	c0.111,0.507,0.164,1.061,0.164,1.661v5.042h-1.025V43.77c0-2.062-0.742-3.092-2.221-3.092c-0.85,0-1.597,0.405-2.241,1.226v6.929
	h-1.026v-9.021h1.026v1.05c0.838-0.795,1.657-1.193,2.467-1.193c1.055,0,1.904,0.542,2.549,1.623
	c0.548-0.613,1.026-1.04,1.438-1.274c0.41-0.231,0.891-0.349,1.438-0.349c0.999,0,1.765,0.352,2.303,1.058
	c0.532,0.706,0.8,1.717,0.8,3.032V48.832"/>
<path fill="#231F20" d="M219.718,43.078c-0.082-0.719-0.357-1.295-0.823-1.731c-0.466-0.434-1.055-0.65-1.767-0.65
	c-0.671,0-1.266,0.226-1.787,0.683c-0.521,0.454-0.844,1.02-0.967,1.699H219.718L219.718,43.078z M220.767,43.532
	c0,0.164-0.009,0.308-0.021,0.431h-6.536c0,1.233,0.281,2.2,0.847,2.897c0.562,0.697,1.339,1.049,2.329,1.049
	c1.017,0,2.062-0.372,3.135-1.108v1.035c-1.044,0.721-2.139,1.078-3.292,1.078c-1.176,0-2.151-0.445-2.925-1.342
	c-0.776-0.896-1.163-2.025-1.163-3.393c0-1.301,0.381-2.373,1.141-3.22c0.76-0.845,1.73-1.271,2.908-1.271
	c1.055,0,1.914,0.36,2.578,1.078C220.433,41.488,220.767,42.407,220.767,43.532"/>
<path fill="#231F20" d="M230.443,48.832h-1.027v-5.165c0-1.993-0.76-2.989-2.28-2.989c-0.999,0-1.828,0.549-2.487,1.656v6.498
	h-1.025v-9.021h1.025v1.459c0.437-0.589,0.861-1.005,1.27-1.242c0.412-0.24,0.901-0.36,1.476-0.36c0.954,0,1.7,0.331,2.241,0.996
	c0.539,0.665,0.809,1.585,0.809,2.764V48.832"/>
<path fill="#231F20" d="M238.685,48.571c-0.646,0.229-1.214,0.343-1.706,0.343c-1.371,0-2.056-0.871-2.056-2.616v-5.479h-2.156
	v-1.008h2.156v-1.665l1.028-0.965v2.63h2.487v1.008h-2.487v5.474c0,1.077,0.419,1.616,1.254,1.616c0.425,0,0.917-0.132,1.479-0.393
	V48.571"/>
<polyline fill="#231F20" points="80.839,26.08 70.352,26.08 70.352,6.368 80.605,6.368 80.605,7.818 71.944,7.818 71.944,15.384 
	80.485,15.384 80.485,16.831 71.944,16.831 71.944,24.633 80.839,24.633 80.839,26.08 "/>
<rect x="83.379" y="15.545" fill="#231F20" width="5.763" height="1.477"/>
<polyline fill="#231F20" points="103.444,26.08 92.953,26.08 92.953,6.368 103.207,6.368 103.207,7.818 94.549,7.818 94.549,15.384 
	103.09,15.384 103.09,16.831 94.549,16.831 94.549,24.633 103.444,24.633 103.444,26.08 "/>
<polyline fill="#231F20" points="125.279,26.08 124.04,26.08 109.942,9.414 109.942,26.08 108.35,26.08 108.35,6.368 109.486,6.358 
	123.688,23.328 123.688,6.368 125.279,6.368 125.279,26.08 "/>
<polyline fill="#231F20" points="143.306,7.818 136.357,7.818 136.357,26.08 134.766,26.08 134.766,7.818 127.848,7.818 
	127.848,6.368 143.306,6.368 143.306,7.818 "/>
<polyline fill="#231F20" points="156.366,26.08 145.875,26.08 145.875,6.368 156.129,6.368 156.129,7.818 147.471,7.818 
	147.471,15.384 156.012,15.384 156.012,16.831 147.471,16.831 147.471,24.633 156.366,24.633 156.366,26.08 "/>
<path fill="#231F20" d="M169.131,11.379c0-2.373-1.547-3.561-4.641-3.561h-3.074v7.447h2.544c1.655,0,2.93-0.337,3.825-1.01
	C168.683,13.585,169.131,12.624,169.131,11.379L169.131,11.379z M174.185,26.08h-1.952l-3.754-5.998
	c-0.945-1.532-1.674-2.476-2.186-2.832c-0.512-0.357-1.419-0.537-2.717-0.537h-2.16v9.367h-1.593V6.368h4.962
	c1.952,0,3.441,0.439,4.478,1.315c1.032,0.877,1.553,2.134,1.553,3.769c0,2.343-1.192,3.919-3.577,4.727
	c0.513,0.277,1.154,0.976,1.924,2.099c0.235,0.355,0.736,1.134,1.5,2.338c0.669,1.063,1.703,2.661,3.101,4.79
	C173.844,25.521,173.985,25.748,174.185,26.08"/>
<path fill="#231F20" d="M186.328,11.704c0-1.365-0.396-2.352-1.181-2.967c-0.79-0.613-2.052-0.919-3.782-0.919h-3.164v7.596h2.838
	c1.832,0,3.171-0.298,4.018-0.892S186.328,12.989,186.328,11.704L186.328,11.704z M188.013,11.704c0,1.67-0.562,2.947-1.685,3.831
	s-2.739,1.324-4.848,1.324h-3.279v9.221h-1.596V6.368h4.728c2.146,0,3.656,0.307,4.522,0.916
	C187.291,8.305,188.013,9.78,188.013,11.704"/>
<path fill="#231F20" d="M200.719,11.379c0-2.373-1.547-3.561-4.641-3.561h-3.073v7.447h2.543c1.655,0,2.929-0.337,3.826-1.01
	C200.271,13.585,200.719,12.624,200.719,11.379L200.719,11.379z M205.772,26.08h-1.951l-3.753-5.998
	c-0.946-1.532-1.676-2.476-2.186-2.832c-0.513-0.357-1.421-0.537-2.721-0.537h-2.157v9.367h-1.595V6.368h4.964
	c1.951,0,3.442,0.439,4.476,1.315c1.035,0.877,1.554,2.134,1.554,3.769c0,2.343-1.192,3.919-3.577,4.727
	c0.513,0.277,1.152,0.976,1.925,2.099c0.234,0.355,0.735,1.134,1.5,2.338c0.667,1.063,1.702,2.661,3.099,4.79
	C205.433,25.521,205.573,25.748,205.772,26.08"/>
<rect x="208.195" y="6.368" fill="#231F20" width="1.592" height="19.712"/>
<path fill="#231F20" d="M223.973,20.967c0,1.536-0.511,2.807-1.536,3.812c-1.024,1.005-2.314,1.508-3.87,1.508
	c-1.715,0-3.299-0.562-4.758-1.684v-2.068c0.982,0.826,1.808,1.397,2.467,1.715c0.662,0.313,1.385,0.471,2.174,0.471
	c1.143,0,2.068-0.33,2.775-0.99c0.711-0.659,1.064-1.512,1.064-2.555c0-1.026-0.258-1.803-0.767-2.335
	c-0.513-0.533-1.652-1.217-3.413-2.054c-1.766-0.839-2.965-1.636-3.606-2.394c-0.639-0.76-0.962-1.769-0.962-3.029
	c0-1.518,0.498-2.763,1.494-3.738c0.994-0.977,2.271-1.462,3.827-1.462c1.438,0,2.886,0.462,4.345,1.389v1.921
	c-1.38-1.183-2.799-1.775-4.257-1.775c-1.044,0-1.925,0.347-2.646,1.035c-0.718,0.691-1.08,1.527-1.08,2.514
	c0,0.885,0.263,1.62,0.787,2.199c0.52,0.582,1.479,1.197,2.88,1.849c2.01,0.944,3.357,1.803,4.049,2.57
	C223.629,18.631,223.973,19.666,223.973,20.967"/>
<polyline fill="#231F20" points="237.98,26.08 227.49,26.08 227.49,6.368 237.744,6.368 237.744,7.818 229.087,7.818 
	229.087,15.384 237.627,15.384 237.627,16.831 229.087,16.831 229.087,24.633 237.98,24.633 237.98,26.08 "/>
<path fill="#1C9B97" d="M29.532,26.64c0-9.252,4.725-17.393,11.89-22.158C37.191,1.656,32.108,0,26.639,0
	c-5.471,0-10.555,1.656-14.784,4.481c7.163,4.766,11.89,12.906,11.89,22.158c0,9.249-4.727,17.388-11.89,22.154
	c4.229,2.831,9.313,4.482,14.784,4.482c5.47,0,10.553-1.651,14.783-4.482C34.257,44.027,29.532,35.889,29.532,26.64"/>
<path fill="#1C9B97" d="M23.744,26.64c0-9.252-4.725-17.393-11.89-22.158C4.708,9.26,0,17.396,0,26.64
	c0,9.24,4.708,17.376,11.854,22.154C19.02,44.027,23.744,35.889,23.744,26.64"/>
<path fill="#AAD2A0" d="M23.744,26.64c0-9.252-4.725-17.393-11.89-22.158C4.708,9.26,0,17.396,0,26.64
	c0,9.24,4.708,17.376,11.854,22.154C19.02,44.027,23.744,35.889,23.744,26.64"/>
<path fill="#1C9B97" d="M53.276,26.64c0-9.243-4.708-17.38-11.853-22.158C34.258,9.247,29.533,17.388,29.533,26.64
	c0,9.249,4.725,17.388,11.891,22.154C48.568,44.016,53.276,35.88,53.276,26.64"/>
<path fill="#83B9DC" d="M53.276,26.64c0-9.243-4.708-17.38-11.853-22.158C34.258,9.247,29.533,17.388,29.533,26.64
	c0,9.249,4.725,17.388,11.891,22.154C48.568,44.016,53.276,35.88,53.276,26.64"/>
</svg>
