<?xml version="1.0" encoding="utf-8"?>
<!-- Generator: Adobe Illustrator 15.0.0, SVG Export Plug-In  -->
<!DOCTYPE svg PUBLIC "-//W3C//DTD SVG 1.1//EN" "http://www.w3.org/Graphics/SVG/1.1/DTD/svg11.dtd" [
	<!ENTITY ns_flows "http://ns.adobe.com/Flows/1.0/">
]>
<svg version="1.1"
	 xmlns="http://www.w3.org/2000/svg" xmlns:xlink="http://www.w3.org/1999/xlink" xmlns:a="http://ns.adobe.com/AdobeSVGViewerExtensions/3.0/"
	 x="0px" y="0px" width="159px" height="36px" viewBox="0 0 159 36" overflow="visible" enable-background="new 0 0 159 36"
	 xml:space="preserve">
<defs>
</defs>
<path fill="#231F20" d="M50.785,24.144c-0.396-0.155-0.713-0.233-0.951-0.233c-0.533,0-0.908,0.161-1.123,0.48
	c-0.215,0.319-0.324,0.883-0.324,1.685v0.467h1.164v0.603h-1.164v5.411h-0.684v-5.411h-1.057v-0.603h1.057v-0.439
	c0-0.995,0.168-1.721,0.506-2.178c0.338-0.457,0.877-0.685,1.617-0.685c0.264,0,0.584,0.064,0.959,0.192V24.144"/>
<path fill="#231F20" d="M55.717,29.521c0-0.67-0.217-1.237-0.65-1.705c-0.434-0.467-0.965-0.698-1.596-0.698
	c-0.584,0-1.09,0.231-1.514,0.698c-0.425,0.468-0.636,1.02-0.636,1.664c0,0.688,0.209,1.271,0.628,1.746
	c0.42,0.476,0.938,0.713,1.549,0.713c0.612,0,1.135-0.237,1.569-0.713C55.5,30.751,55.717,30.182,55.717,29.521L55.717,29.521z
	 M56.43,29.562c0,0.849-0.287,1.566-0.863,2.158c-0.577,0.594-1.28,0.889-2.11,0.889c-0.785,0-1.457-0.305-2.013-0.916
	c-0.559-0.609-0.836-1.352-0.836-2.227c0-0.83,0.285-1.541,0.855-2.133c0.57-0.591,1.254-0.889,2.049-0.889
	c0.812,0,1.502,0.304,2.068,0.908C56.147,27.961,56.43,28.695,56.43,29.562"/>
<path fill="#231F20" d="M62.307,27.213l-0.478,0.629c-0.321-0.484-0.659-0.725-1.014-0.725c-0.43,0-0.828,0.266-1.192,0.799
	c-0.367,0.533-0.548,1.112-0.548,1.742v2.896h-0.686v-6.014h0.686v1.492c0.39-0.592,0.726-1.007,1.009-1.238
	c0.282-0.234,0.582-0.351,0.901-0.351C61.457,26.444,61.899,26.701,62.307,27.213"/>
<path fill="#231F20" d="M70.937,32.381c-0.43,0.152-0.809,0.229-1.137,0.229c-0.914,0-1.371-0.581-1.371-1.744v-3.652h-1.437v-0.672
	h1.437v-1.11l0.686-0.643v1.753h1.658v0.672h-1.658v3.649c0,0.718,0.279,1.077,0.836,1.077c0.283,0,0.611-0.088,0.986-0.262V32.381"
	/>
<path fill="#231F20" d="M77.145,32.555h-0.686v-3.279c0-1.439-0.511-2.157-1.535-2.157c-0.656,0-1.222,0.376-1.699,1.132v4.305
	h-0.684v-9.137h0.684v4.096c0.477-0.713,1.065-1.068,1.768-1.068c1.433,0,2.152,0.941,2.152,2.822V32.555"/>
<path fill="#231F20" d="M83.485,28.719c-0.055-0.479-0.237-0.863-0.549-1.154c-0.31-0.289-0.703-0.434-1.177-0.434
	c-0.448,0-0.844,0.15-1.192,0.455c-0.348,0.303-0.562,0.68-0.644,1.133H83.485L83.485,28.719z M84.185,29.021
	c0,0.109-0.006,0.205-0.013,0.287h-4.358c0,0.822,0.188,1.467,0.565,1.932c0.375,0.465,0.892,0.699,1.552,0.699
	c0.678,0,1.375-0.248,2.09-0.739v0.69c-0.694,0.48-1.426,0.719-2.192,0.719c-0.785,0-1.437-0.297-1.951-0.895
	c-0.518-0.598-0.776-1.351-0.776-2.262c0-0.867,0.254-1.582,0.762-2.146c0.507-0.563,1.152-0.848,1.938-0.848
	c0.704,0,1.278,0.24,1.719,0.719C83.963,27.659,84.185,28.271,84.185,29.021"/>
<path fill="#231F20" d="M94.035,28.719c-0.056-0.479-0.238-0.863-0.55-1.154c-0.31-0.289-0.702-0.434-1.178-0.434
	c-0.447,0-0.843,0.15-1.19,0.455c-0.349,0.303-0.562,0.68-0.645,1.133H94.035L94.035,28.719z M94.733,29.021
	c0,0.109-0.006,0.205-0.013,0.287h-4.358c0,0.822,0.188,1.467,0.564,1.932c0.375,0.465,0.893,0.699,1.553,0.699
	c0.679,0,1.375-0.248,2.09-0.739v0.69c-0.694,0.48-1.426,0.719-2.192,0.719c-0.785,0-1.437-0.297-1.951-0.895
	c-0.518-0.598-0.776-1.351-0.776-2.262c0-0.867,0.254-1.582,0.763-2.146c0.506-0.563,1.151-0.848,1.937-0.848
	c0.703,0,1.278,0.24,1.719,0.719C94.512,27.659,94.733,28.271,94.733,29.021"/>
<path fill="#231F20" d="M101.186,32.555h-0.684v-3.443c0-1.329-0.508-1.993-1.521-1.993c-0.666,0-1.219,0.366-1.659,1.104v4.332
	h-0.683v-6.014h0.683v0.973c0.291-0.393,0.575-0.67,0.849-0.828c0.272-0.16,0.6-0.24,0.981-0.24c0.638,0,1.136,0.221,1.494,0.664
	c0.36,0.443,0.54,1.057,0.54,1.843V32.555"/>
<polyline fill="#231F20" points="108.037,26.541 105.461,32.555 105.051,32.555 102.543,26.541 103.209,26.537 105.268,31.438 
	107.352,26.541 108.037,26.541 "/>
<path fill="#231F20" d="M110.27,32.555h-0.686v-6.014h0.686V32.555z M110.27,24.925h-0.686v-1.082h0.686V24.925z"/>
<path fill="#231F20" d="M116.502,27.213l-0.479,0.629c-0.319-0.484-0.657-0.725-1.013-0.725c-0.43,0-0.828,0.266-1.192,0.799
	c-0.366,0.533-0.548,1.112-0.548,1.742v2.896h-0.686v-6.014h0.686v1.492c0.391-0.592,0.727-1.007,1.009-1.238
	c0.282-0.234,0.582-0.351,0.901-0.351C115.651,26.444,116.094,26.701,116.502,27.213"/>
<path fill="#231F20" d="M122.571,29.521c0-0.67-0.217-1.237-0.649-1.705c-0.437-0.467-0.967-0.698-1.598-0.698
	c-0.584,0-1.089,0.231-1.514,0.698c-0.424,0.468-0.637,1.02-0.637,1.664c0,0.688,0.211,1.271,0.631,1.746s0.936,0.713,1.547,0.713
	c0.613,0,1.134-0.237,1.57-0.713C122.354,30.751,122.571,30.182,122.571,29.521L122.571,29.521z M123.283,29.562
	c0,0.849-0.287,1.566-0.861,2.158c-0.576,0.594-1.279,0.889-2.111,0.889c-0.786,0-1.457-0.305-2.014-0.916
	c-0.557-0.609-0.836-1.352-0.836-2.227c0-0.83,0.285-1.541,0.856-2.133c0.571-0.591,1.254-0.889,2.048-0.889
	c0.814,0,1.504,0.304,2.07,0.908C123,27.961,123.283,28.695,123.283,29.562"/>
<path fill="#231F20" d="M129.791,32.555h-0.685v-3.443c0-1.329-0.507-1.993-1.521-1.993c-0.666,0-1.219,0.366-1.658,1.104v4.332
	h-0.684v-6.014h0.684v0.973c0.291-0.393,0.574-0.67,0.847-0.828c0.274-0.16,0.601-0.24,0.983-0.24c0.637,0,1.135,0.221,1.494,0.664
	c0.358,0.443,0.539,1.057,0.539,1.843V32.555"/>
<path fill="#231F20" d="M140.121,32.555h-0.686V29.18c0-1.375-0.516-2.062-1.547-2.062c-0.586,0-1.102,0.321-1.549,0.968
	c0.074,0.338,0.109,0.707,0.109,1.107v3.361h-0.684V29.18c0-1.375-0.495-2.062-1.48-2.062c-0.566,0-1.064,0.271-1.494,0.817v4.619
	h-0.685v-6.014h0.685v0.7c0.559-0.53,1.104-0.796,1.645-0.796c0.703,0,1.27,0.361,1.699,1.082c0.365-0.409,0.685-0.693,0.959-0.85
	c0.273-0.154,0.594-0.232,0.959-0.232c0.666,0,1.177,0.234,1.535,0.705c0.354,0.471,0.533,1.145,0.533,2.021V32.555"/>
<path fill="#231F20" d="M146.479,28.719c-0.055-0.479-0.238-0.863-0.549-1.154c-0.311-0.289-0.703-0.434-1.178-0.434
	c-0.447,0-0.844,0.15-1.191,0.455c-0.348,0.303-0.562,0.68-0.645,1.133H146.479L146.479,28.719z M147.178,29.021
	c0,0.109-0.006,0.205-0.014,0.287h-4.357c0,0.822,0.188,1.467,0.564,1.932c0.375,0.465,0.893,0.699,1.553,0.699
	c0.678,0,1.375-0.248,2.09-0.739v0.69c-0.696,0.48-1.426,0.719-2.194,0.719c-0.784,0-1.435-0.297-1.95-0.895
	c-0.518-0.598-0.775-1.351-0.775-2.262c0-0.867,0.254-1.582,0.761-2.146c0.506-0.563,1.153-0.848,1.938-0.848
	c0.703,0,1.276,0.24,1.719,0.719C146.955,27.659,147.178,28.271,147.178,29.021"/>
<path fill="#231F20" d="M153.629,32.555h-0.685v-3.443c0-1.329-0.507-1.993-1.521-1.993c-0.666,0-1.219,0.366-1.658,1.104v4.332
	h-0.684v-6.014h0.684v0.973c0.291-0.393,0.574-0.67,0.847-0.828c0.274-0.16,0.601-0.24,0.983-0.24c0.636,0,1.134,0.221,1.494,0.664
	c0.359,0.443,0.539,1.057,0.539,1.843V32.555"/>
<path fill="#231F20" d="M159.123,32.381c-0.431,0.152-0.81,0.229-1.138,0.229c-0.914,0-1.37-0.581-1.37-1.744v-3.652h-1.438v-0.672
	h1.438v-1.11l0.686-0.643v1.753h1.658v0.672h-1.658v3.649c0,0.718,0.279,1.077,0.836,1.077c0.283,0,0.611-0.088,0.986-0.262V32.381"
	/>
<polyline fill="#231F20" points="53.893,17.387 46.901,17.387 46.901,4.246 53.737,4.246 53.737,5.212 47.963,5.212 47.963,10.256 
	53.657,10.256 53.657,11.221 47.963,11.221 47.963,16.422 53.893,16.422 53.893,17.387 "/>
<rect x="55.586" y="10.363" fill="#231F20" width="3.842" height="0.984"/>
<polyline fill="#231F20" points="68.963,17.387 61.969,17.387 61.969,4.246 68.805,4.246 68.805,5.212 63.033,5.212 63.033,10.256 
	68.727,10.256 68.727,11.221 63.033,11.221 63.033,16.422 68.963,16.422 68.963,17.387 "/>
<polyline fill="#231F20" points="83.52,17.387 82.693,17.387 73.295,6.276 73.295,17.387 72.233,17.387 72.233,4.246 72.991,4.239 
	82.458,15.552 82.458,4.246 83.52,4.246 83.52,17.387 "/>
<polyline fill="#231F20" points="95.537,5.212 90.905,5.212 90.905,17.387 89.844,17.387 89.844,5.212 85.231,5.212 85.231,4.246 
	95.537,4.246 95.537,5.212 "/>
<polyline fill="#231F20" points="104.244,17.387 97.25,17.387 97.25,4.246 104.086,4.246 104.086,5.212 98.313,5.212 98.313,10.256 
	104.008,10.256 104.008,11.221 98.313,11.221 98.313,16.422 104.244,16.422 104.244,17.387 "/>
<path fill="#231F20" d="M112.754,7.586c0-1.582-1.031-2.374-3.094-2.374h-2.05v4.965h1.696c1.104,0,1.953-0.224,2.55-0.673
	C112.455,9.057,112.754,8.416,112.754,7.586L112.754,7.586z M116.123,17.387h-1.302l-2.502-3.999
	c-0.631-1.021-1.116-1.65-1.457-1.888c-0.342-0.238-0.946-0.358-1.812-0.358h-1.44v6.245h-1.062V4.246h3.308
	c1.302,0,2.295,0.293,2.985,0.877c0.688,0.584,1.035,1.422,1.035,2.512c0,1.562-0.795,2.613-2.385,3.151
	c0.342,0.185,0.77,0.65,1.282,1.399c0.157,0.237,0.491,0.756,1,1.559c0.446,0.709,1.136,1.774,2.067,3.193
	C115.896,17.015,115.99,17.165,116.123,17.387"/>
<path fill="#231F20" d="M124.219,7.803c0-0.91-0.264-1.568-0.787-1.978c-0.526-0.409-1.368-0.613-2.521-0.613h-2.109v5.064h1.892
	c1.222,0,2.114-0.198,2.679-0.594S124.219,8.66,124.219,7.803L124.219,7.803z M125.342,7.803c0,1.113-0.375,1.965-1.123,2.554
	c-0.748,0.589-1.826,0.883-3.231,0.883h-2.187v6.147h-1.063V4.246h3.151c1.431,0,2.438,0.204,3.015,0.61
	C124.86,5.537,125.342,6.52,125.342,7.803"/>
<path fill="#231F20" d="M133.812,7.586c0-1.582-1.031-2.374-3.094-2.374h-2.049v4.965h1.695c1.104,0,1.952-0.224,2.551-0.673
	C133.514,9.057,133.812,8.416,133.812,7.586L133.812,7.586z M137.182,17.387h-1.301l-2.502-3.999
	c-0.631-1.021-1.117-1.65-1.457-1.888c-0.342-0.238-0.947-0.358-1.813-0.358h-1.438v6.245h-1.063V4.246h3.31
	c1.301,0,2.295,0.293,2.983,0.877c0.69,0.584,1.036,1.422,1.036,2.512c0,1.562-0.795,2.613-2.385,3.151
	c0.342,0.185,0.769,0.65,1.283,1.399c0.156,0.237,0.49,0.756,1,1.559c0.444,0.709,1.135,1.774,2.065,3.193
	C136.955,17.015,137.049,17.165,137.182,17.387"/>
<rect x="138.797" y="4.246" fill="#231F20" width="1.062" height="13.141"/>
<path fill="#231F20" d="M149.315,13.978c0,1.024-0.341,1.871-1.024,2.541c-0.683,0.67-1.543,1.005-2.58,1.005
	c-1.144,0-2.199-0.374-3.172-1.122v-1.379c0.655,0.551,1.205,0.932,1.645,1.143c0.441,0.209,0.923,0.314,1.449,0.314
	c0.762,0,1.379-0.22,1.851-0.66c0.474-0.44,0.709-1.008,0.709-1.703c0-0.684-0.172-1.202-0.511-1.557
	c-0.342-0.355-1.102-0.811-2.275-1.369c-1.177-0.559-1.977-1.09-2.404-1.596c-0.426-0.506-0.642-1.179-0.642-2.019
	c0-1.012,0.332-1.842,0.996-2.493c0.663-0.65,1.515-0.974,2.552-0.974c0.959,0,1.924,0.308,2.896,0.926v1.28
	c-0.92-0.788-1.866-1.183-2.838-1.183c-0.696,0-1.283,0.231-1.764,0.69c-0.479,0.461-0.72,1.018-0.72,1.676
	c0,0.589,0.175,1.08,0.524,1.466c0.347,0.388,0.986,0.798,1.92,1.232c1.34,0.63,2.238,1.202,2.699,1.714
	C149.086,12.421,149.315,13.111,149.315,13.978"/>
<polyline fill="#231F20" points="158.653,17.387 151.66,17.387 151.66,4.246 158.496,4.246 158.496,5.212 152.725,5.212 
	152.725,10.256 158.418,10.256 158.418,11.221 152.725,11.221 152.725,16.422 158.653,16.422 158.653,17.387 "/>
<path fill="#1C9B97" d="M19.688,17.76c0-6.168,3.15-11.595,7.927-14.772C24.794,1.104,21.406,0,17.759,0s-7.036,1.104-9.856,2.988
	c4.776,3.177,7.927,8.604,7.927,14.772c0,6.166-3.151,11.592-7.927,14.77c2.82,1.888,6.209,2.988,9.856,2.988
	s7.035-1.101,9.856-2.988C22.838,29.352,19.688,23.926,19.688,17.76"/>
<path fill="#1C9B97" d="M15.83,17.76c0-6.168-3.15-11.595-7.927-14.772C3.139,6.173,0,11.598,0,17.76
	c0,6.16,3.139,11.584,7.903,14.77C12.68,29.352,15.83,23.926,15.83,17.76"/>
<path fill="#AAD2A0" d="M15.83,17.76c0-6.168-3.15-11.595-7.927-14.772C3.139,6.173,0,11.598,0,17.76
	c0,6.16,3.139,11.584,7.903,14.77C12.68,29.352,15.83,23.926,15.83,17.76"/>
<path fill="#1C9B97" d="M35.518,17.76c0-6.162-3.139-11.587-7.902-14.772c-4.777,3.177-7.927,8.604-7.927,14.772
	c0,6.166,3.15,11.592,7.927,14.77C32.379,29.344,35.518,23.92,35.518,17.76"/>
<path fill="#83B9DC" d="M35.518,17.76c0-6.162-3.139-11.587-7.902-14.772c-4.777,3.177-7.927,8.604-7.927,14.772
	c0,6.166,3.15,11.592,7.927,14.77C32.379,29.344,35.518,23.92,35.518,17.76"/>
</svg>
